<svg xmlns="http://www.w3.org/2000/svg" xmlns:xlink="http://www.w3.org/1999/xlink" contentStyleType="text/css" data-diagram-type="CLASS" height="138px" preserveAspectRatio="none" style="width:243px;height:138px;background:#FFFFFF;" version="1.1" viewBox="0 0 243 138" width="243px" zoomAndPan="magnify"><title>C4 - Code (Sample Pseudocode)</title><defs/><g><g class="title" data-source-line="3"><text fill="#000000" font-family="Arial" font-size="14" font-weight="bold" lengthAdjust="spacing" textLength="215.4824" x="10" y="23.1318">C4 - Code (Sample Pseudocode)</text></g><!--class FeatureService--><g class="entity" data-entity="FeatureService" data-source-line="4" data-uid="ent0002" id="entity_FeatureService"><rect fill="#F1F1F1" height="80.1973" rx="2.5" ry="2.5" style="stroke:#181818;stroke-width:0.5;" width="192.5234" x="21.9795" y="44.0986"/><ellipse cx="66.5259" cy="60.0986" fill="#ADD1B2" rx="11" ry="11" style="stroke:#181818;stroke-width:1;"/><path d="M68.999,66.2417 Q68.418,66.5405 67.7788,66.6899 Q67.1396,66.8394 66.4341,66.8394 Q63.9272,66.8394 62.6074,65.1875 Q61.2876,63.5356 61.2876,60.4146 Q61.2876,57.2852 62.6074,55.6333 Q63.9272,53.9814 66.4341,53.9814 Q67.1396,53.9814 67.7871,54.1309 Q68.4346,54.2803 68.999,54.5791 L68.999,57.3018 Q68.3682,56.7207 67.7747,56.4509 Q67.1812,56.1812 66.5503,56.1812 Q65.2056,56.1812 64.5208,57.2478 Q63.8359,58.3145 63.8359,60.4146 Q63.8359,62.5063 64.5208,63.573 Q65.2056,64.6396 66.5503,64.6396 Q67.1812,64.6396 67.7747,64.3699 Q68.3682,64.1001 68.999,63.519 Z " fill="#000000"/><text fill="#000000" font-family="Arial" font-size="14" lengthAdjust="spacing" textLength="94.9307" x="87.0259" y="65.1812">FeatureService</text><line style="stroke:#181818;stroke-width:0.5;" x1="22.9795" x2="213.5029" y1="76.0986" y2="76.0986"/><line style="stroke:#181818;stroke-width:0.5;" x1="22.9795" x2="213.5029" y1="84.0986" y2="84.0986"/><ellipse cx="32.9795" cy="105.6973" fill="#84BE84" rx="3" ry="3" style="stroke:#038048;stroke-width:1;"/><text fill="#000000" font-family="Arial" font-size="14" lengthAdjust="spacing" textLength="166.5234" x="41.9795" y="101.2305">getFeatureVector(entityId):</text><text fill="#000000" font-family="Arial" font-size="14" lengthAdjust="spacing" textLength="88.71" x="41.9795" y="117.3291">FeatureVector</text></g><!--SRC=[KypCIyufJKbLqDFJ1o8ehrY_92CrDrMle3GtXukh9BCa9rN1sKH1Ly4v7wXK8pWnjm0e4b2SMfgIdmmKqkHApaaiBbPmIqqiAIrA3KujAijCJbMevb9Gq4vFBO4AXwKcb-GNQQJc0Gsiz4pHj590aU2g1G00]--></g></svg>