<svg xmlns="http://www.w3.org/2000/svg" xmlns:xlink="http://www.w3.org/1999/xlink" contentStyleType="text/css" data-diagram-type="CLASS" height="138px" preserveAspectRatio="none" style="width:243px;height:138px;background:#FFFFFF;" version="1.1" viewBox="0 0 243 138" width="243px" zoomAndPan="magnify"><title>C4 - Code (Sample Pseudocode)</title><defs/><g><text fill="#000000" font-family="Arial" font-size="14" font-weight="bold" lengthAdjust="spacing" textLength="215.4824" x="10" y="23.1318">C4 - Code (Sample Pseudocode)</text><!--class FeatureService--><g class="entity" data-entity="FeatureService" data-source-line="4" data-uid="ent0002" id="entity_FeatureService"><rect fill="#F1F1F1" height="80.1973" rx="2.5" ry="2.5" style="stroke:#181818;stroke-width:0.5;" width="192.5234" x="21.9795" y="44.0986"/><ellipse cx="66.5259" cy="60.0986" fill="#ADD1B2" rx="11" ry="11" style="stroke:#181818;stroke-width:1;"/><path d="M69.2915,55.9736 Q69.4478,55.7549 69.6353,55.6455 Q69.8228,55.5361 70.0415,55.5361 Q70.4165,55.5361 70.6509,55.8018 Q70.8853,56.0518 70.8853,56.6611 L70.8853,58.1143 Q70.8853,58.7236 70.6509,58.9893 Q70.4165,59.2549 70.0415,59.2549 Q69.6978,59.2549 69.4946,59.0518 Q69.2915,58.8643 69.1821,58.3486 Q69.1353,57.9893 68.9478,57.8018 Q68.6196,57.4268 68.0103,57.208 Q67.4009,56.9893 66.7759,56.9893 Q66.0103,56.9893 65.3696,57.3174 Q64.7446,57.6455 64.2446,58.3955 Q63.7603,59.1455 63.7603,60.1768 L63.7603,61.2705 Q63.7603,62.5049 64.6509,63.333 Q65.5415,64.1455 67.1353,64.1455 Q68.0728,64.1455 68.729,63.8955 Q69.1196,63.7393 69.5415,63.3018 Q69.8071,63.0361 69.9478,62.958 Q70.104,62.8799 70.3071,62.8799 Q70.6353,62.8799 70.8853,63.1455 Q71.1509,63.3955 71.1509,63.7393 Q71.1509,64.083 70.8071,64.4893 Q70.3071,65.0674 69.5103,65.3955 Q68.4321,65.8486 67.1353,65.8486 Q65.6196,65.8486 64.4165,65.2236 Q63.4321,64.7236 62.7446,63.6611 Q62.0571,62.583 62.0571,61.3018 L62.0571,60.1455 Q62.0571,58.8174 62.6665,57.6768 Q63.2915,56.5205 64.3853,55.9111 Q65.479,55.2861 66.7134,55.2861 Q67.4478,55.2861 68.0884,55.458 Q68.7446,55.6143 69.2915,55.9736 Z " fill="#000000"/><text fill="#000000" font-family="Arial" font-size="14" lengthAdjust="spacing" textLength="94.9307" x="87.0259" y="65.1812">FeatureService</text><line style="stroke:#181818;stroke-width:0.5;" x1="22.9795" x2="213.5029" y1="76.0986" y2="76.0986"/><line style="stroke:#181818;stroke-width:0.5;" x1="22.9795" x2="213.5029" y1="84.0986" y2="84.0986"/><ellipse cx="32.9795" cy="105.6973" fill="#84BE84" rx="3" ry="3" style="stroke:#038048;stroke-width:1;"/><text fill="#000000" font-family="Arial" font-size="14" lengthAdjust="spacing" textLength="166.5234" x="41.9795" y="101.2305">getFeatureVector(entityId):</text><text fill="#000000" font-family="Arial" font-size="14" lengthAdjust="spacing" textLength="88.71" x="41.9795" y="117.3291">FeatureVector</text></g><!--SRC=[KypCIyufJKbLqDFJ1o8ehrY_92CrDrMle3GtXukh9BCa9rN1sKH1Ly4v7wXK8pWnjm0e4b2SMfgIdmmKqkHApaaiBbPmIqqiAIrA3KujAijCJbMevb9Gq4vFBO4AXwKcb-GNQQJc0Gsiz4pHj590aU2g1G00]--></g></svg>