<svg xmlns="http://www.w3.org/2000/svg" xmlns:xlink="http://www.w3.org/1999/xlink" contentStyleType="text/css" data-diagram-type="SEQUENCE" height="513px" preserveAspectRatio="none" style="width:851px;height:513px;background:#FFFFFF;" version="1.1" viewBox="0 0 851 513" width="851px" zoomAndPan="magnify"><title>Data Product Flow: Source to Consumer</title><defs/><g><text fill="#000000" font-family="sans-serif" font-size="14" font-weight="bold" lengthAdjust="spacing" textLength="284.9971" x="284.3633" y="28.5352">Data Product Flow: Source to Consumer</text><rect fill="none" height="149.5078" style="stroke:#000000;stroke-width:1.5;" width="834.7236" x="10" y="268.5293"/><g><title>Orchestrator</title><rect fill="#000000" fill-opacity="0.00000" height="330.0605" width="8" x="65.8306" y="104.9766"/><line style="stroke:#181818;stroke-width:0.5;stroke-dasharray:5,5;" x1="69" x2="69" y1="104.9766" y2="435.0371"/></g><g><title>Ingestion</title><rect fill="#000000" fill-opacity="0.00000" height="330.0605" width="8" x="167.1196" y="104.9766"/><line style="stroke:#181818;stroke-width:0.5;stroke-dasharray:5,5;" x1="170.6401" x2="170.6401" y1="104.9766" y2="435.0371"/></g><g><title>Landing</title><rect fill="#000000" fill-opacity="0.00000" height="330.0605" width="8" x="254.939" y="104.9766"/><line style="stroke:#181818;stroke-width:0.5;stroke-dasharray:5,5;" x1="258.8584" x2="258.8584" y1="104.9766" y2="435.0371"/></g><g><title>Databricks Job</title><rect fill="#000000" fill-opacity="0.00000" height="330.0605" width="8" x="351.2485" y="104.9766"/><line style="stroke:#181818;stroke-width:0.5;stroke-dasharray:5,5;" x1="355.0195" x2="355.0195" y1="104.9766" y2="435.0371"/></g><g><title>Quality Check</title><rect fill="#000000" fill-opacity="0.00000" height="330.0605" width="8" x="471.4268" y="104.9766"/><line style="stroke:#181818;stroke-width:0.5;stroke-dasharray:5,5;" x1="474.4775" x2="474.4775" y1="104.9766" y2="435.0371"/></g><g><title>Delta Lake</title><rect fill="#000000" fill-opacity="0.00000" height="330.0605" width="8" x="573.8306" y="104.9766"/><line style="stroke:#181818;stroke-width:0.5;stroke-dasharray:5,5;" x1="577.376" x2="577.376" y1="104.9766" y2="435.0371"/></g><g><title>Unity Catalog</title><rect fill="#000000" fill-opacity="0.00000" height="330.0605" width="8" x="674.874" y="104.9766"/><line style="stroke:#181818;stroke-width:0.5;stroke-dasharray:5,5;" x1="678.2852" x2="678.2852" y1="104.9766" y2="435.0371"/></g><g><title>Consumers</title><rect fill="#000000" fill-opacity="0.00000" height="330.0605" width="8" x="785.4561" y="104.9766"/><line style="stroke:#181818;stroke-width:0.5;stroke-dasharray:5,5;" x1="789.1885" x2="789.1885" y1="104.9766" y2="435.0371"/></g><g class="participant participant-head" data-participant="CTM"><rect fill="#E2E2F0" height="30.4883" rx="2.5" ry="2.5" style="stroke:#181818;stroke-width:0.5;" width="99.6611" x="20" y="73.4883"/><text fill="#000000" font-family="sans-serif" font-size="14" lengthAdjust="spacing" textLength="85.6611" x="27" y="94.0234">Orchestrator</text></g><g class="participant participant-tail" data-participant="CTM"><rect fill="#E2E2F0" height="30.4883" rx="2.5" ry="2.5" style="stroke:#181818;stroke-width:0.5;" width="99.6611" x="20" y="434.0371"/><text fill="#000000" font-family="sans-serif" font-size="14" lengthAdjust="spacing" textLength="85.6611" x="27" y="454.5723">Orchestrator</text></g><g class="participant participant-head" data-participant="ING"><rect fill="#E2E2F0" height="30.4883" rx="2.5" ry="2.5" style="stroke:#181818;stroke-width:0.5;" width="76.959" x="132.6401" y="73.4883"/><text fill="#000000" font-family="sans-serif" font-size="14" lengthAdjust="spacing" textLength="62.959" x="139.6401" y="94.0234">Ingestion</text></g><g class="participant participant-tail" data-participant="ING"><rect fill="#E2E2F0" height="30.4883" rx="2.5" ry="2.5" style="stroke:#181818;stroke-width:0.5;" width="76.959" x="132.6401" y="434.0371"/><text fill="#000000" font-family="sans-serif" font-size="14" lengthAdjust="spacing" textLength="62.959" x="139.6401" y="454.5723">Ingestion</text></g><g class="participant participant-head" data-participant="LAND"><text fill="#000000" font-family="sans-serif" font-size="14" lengthAdjust="spacing" textLength="54.1611" x="228.8584" y="102.0234">Landing</text><path d="M240.939,52.4883 C240.939,42.4883 258.939,42.4883 258.939,42.4883 C258.939,42.4883 276.939,42.4883 276.939,52.4883 L276.939,78.4883 C276.939,88.4883 258.939,88.4883 258.939,88.4883 C258.939,88.4883 240.939,88.4883 240.939,78.4883 L240.939,52.4883" fill="#E2E2F0" style="stroke:#181818;stroke-width:0.5;"/><path d="M240.939,52.4883 C240.939,62.4883 258.939,62.4883 258.939,62.4883 C258.939,62.4883 276.939,62.4883 276.939,52.4883" fill="none" style="stroke:#181818;stroke-width:0.5;"/></g><g class="participant participant-tail" data-participant="LAND"><text fill="#000000" font-family="sans-serif" font-size="14" lengthAdjust="spacing" textLength="54.1611" x="228.8584" y="447.5723">Landing</text><path d="M240.939,460.5254 C240.939,450.5254 258.939,450.5254 258.939,450.5254 C258.939,450.5254 276.939,450.5254 276.939,460.5254 L276.939,486.5254 C276.939,496.5254 258.939,496.5254 258.939,496.5254 C258.939,496.5254 240.939,496.5254 240.939,486.5254 L240.939,460.5254" fill="#E2E2F0" style="stroke:#181818;stroke-width:0.5;"/><path d="M240.939,460.5254 C240.939,470.5254 258.939,470.5254 258.939,470.5254 C258.939,470.5254 276.939,470.5254 276.939,460.5254" fill="none" style="stroke:#181818;stroke-width:0.5;"/></g><g class="participant participant-head" data-participant="DBX"><rect fill="#E2E2F0" height="30.4883" rx="2.5" ry="2.5" style="stroke:#181818;stroke-width:0.5;" width="112.458" x="299.0195" y="73.4883"/><text fill="#000000" font-family="sans-serif" font-size="14" lengthAdjust="spacing" textLength="98.458" x="306.0195" y="94.0234">Databricks Job</text></g><g class="participant participant-tail" data-participant="DBX"><rect fill="#E2E2F0" height="30.4883" rx="2.5" ry="2.5" style="stroke:#181818;stroke-width:0.5;" width="112.458" x="299.0195" y="434.0371"/><text fill="#000000" font-family="sans-serif" font-size="14" lengthAdjust="spacing" textLength="98.458" x="306.0195" y="454.5723">Databricks Job</text></g><g class="participant participant-head" data-participant="DQ"><rect fill="#E2E2F0" height="30.4883" rx="2.5" ry="2.5" style="stroke:#181818;stroke-width:0.5;" width="107.8984" x="421.4775" y="73.4883"/><text fill="#000000" font-family="sans-serif" font-size="14" lengthAdjust="spacing" textLength="93.8984" x="428.4775" y="94.0234">Quality Check</text></g><g class="participant participant-tail" data-participant="DQ"><rect fill="#E2E2F0" height="30.4883" rx="2.5" ry="2.5" style="stroke:#181818;stroke-width:0.5;" width="107.8984" x="421.4775" y="434.0371"/><text fill="#000000" font-family="sans-serif" font-size="14" lengthAdjust="spacing" textLength="93.8984" x="428.4775" y="454.5723">Quality Check</text></g><g class="participant participant-head" data-participant="DELTA"><text fill="#000000" font-family="sans-serif" font-size="14" lengthAdjust="spacing" textLength="70.9092" x="539.376" y="102.0234">Delta Lake</text><path d="M559.8306,52.4883 C559.8306,42.4883 577.8306,42.4883 577.8306,42.4883 C577.8306,42.4883 595.8306,42.4883 595.8306,52.4883 L595.8306,78.4883 C595.8306,88.4883 577.8306,88.4883 577.8306,88.4883 C577.8306,88.4883 559.8306,88.4883 559.8306,78.4883 L559.8306,52.4883" fill="#E2E2F0" style="stroke:#181818;stroke-width:0.5;"/><path d="M559.8306,52.4883 C559.8306,62.4883 577.8306,62.4883 577.8306,62.4883 C577.8306,62.4883 595.8306,62.4883 595.8306,52.4883" fill="none" style="stroke:#181818;stroke-width:0.5;"/></g><g class="participant participant-tail" data-participant="DELTA"><text fill="#000000" font-family="sans-serif" font-size="14" lengthAdjust="spacing" textLength="70.9092" x="539.376" y="447.5723">Delta Lake</text><path d="M559.8306,460.5254 C559.8306,450.5254 577.8306,450.5254 577.8306,450.5254 C577.8306,450.5254 595.8306,450.5254 595.8306,460.5254 L595.8306,486.5254 C595.8306,496.5254 577.8306,496.5254 577.8306,496.5254 C577.8306,496.5254 559.8306,496.5254 559.8306,486.5254 L559.8306,460.5254" fill="#E2E2F0" style="stroke:#181818;stroke-width:0.5;"/><path d="M559.8306,460.5254 C559.8306,470.5254 577.8306,470.5254 577.8306,470.5254 C577.8306,470.5254 595.8306,470.5254 595.8306,460.5254" fill="none" style="stroke:#181818;stroke-width:0.5;"/></g><g class="participant participant-head" data-participant="UC"><rect fill="#E2E2F0" height="30.4883" rx="2.5" ry="2.5" style="stroke:#181818;stroke-width:0.5;" width="105.1777" x="626.2852" y="73.4883"/><text fill="#000000" font-family="sans-serif" font-size="14" lengthAdjust="spacing" textLength="91.1777" x="633.2852" y="94.0234">Unity Catalog</text></g><g class="participant participant-tail" data-participant="UC"><rect fill="#E2E2F0" height="30.4883" rx="2.5" ry="2.5" style="stroke:#181818;stroke-width:0.5;" width="105.1777" x="626.2852" y="434.0371"/><text fill="#000000" font-family="sans-serif" font-size="14" lengthAdjust="spacing" textLength="91.1777" x="633.2852" y="454.5723">Unity Catalog</text></g><g class="participant participant-head" data-participant="CONS"><rect fill="#E2E2F0" height="30.4883" rx="2.5" ry="2.5" style="stroke:#181818;stroke-width:0.5;" width="90.5352" x="744.1885" y="73.4883"/><text fill="#000000" font-family="sans-serif" font-size="14" lengthAdjust="spacing" textLength="76.5352" x="751.1885" y="94.0234">Consumers</text></g><g class="participant participant-tail" data-participant="CONS"><rect fill="#E2E2F0" height="30.4883" rx="2.5" ry="2.5" style="stroke:#181818;stroke-width:0.5;" width="90.5352" x="744.1885" y="434.0371"/><text fill="#000000" font-family="sans-serif" font-size="14" lengthAdjust="spacing" textLength="76.5352" x="751.1885" y="454.5723">Consumers</text></g><g class="message" data-participant-1="CTM" data-participant-2="ING"><polygon fill="#181818" points="159.1196,132.2871,169.1196,136.2871,159.1196,140.2871,163.1196,136.2871" style="stroke:#181818;stroke-width:1;"/><line style="stroke:#181818;stroke-width:1;" x1="69.8306" x2="165.1196" y1="136.2871" y2="136.2871"/><text fill="#000000" font-family="sans-serif" font-size="13" lengthAdjust="spacing" textLength="77.2891" x="76.8306" y="131.5449">Trigger load</text></g><g class="message" data-participant-1="ING" data-participant-2="LAND"><polygon fill="#181818" points="246.939,161.5977,256.939,165.5977,246.939,169.5977,250.939,165.5977" style="stroke:#181818;stroke-width:1;"/><line style="stroke:#181818;stroke-width:1;" x1="171.1196" x2="252.939" y1="165.5977" y2="165.5977"/><text fill="#000000" font-family="sans-serif" font-size="13" lengthAdjust="spacing" textLength="63.8193" x="178.1196" y="160.8555">Write data</text></g><g class="message" data-participant-1="CTM" data-participant-2="DBX"><polygon fill="#181818" points="343.2485,190.9082,353.2485,194.9082,343.2485,198.9082,347.2485,194.9082" style="stroke:#181818;stroke-width:1;"/><line style="stroke:#181818;stroke-width:1;" x1="69.8306" x2="349.2485" y1="194.9082" y2="194.9082"/><text fill="#000000" font-family="sans-serif" font-size="13" lengthAdjust="spacing" textLength="79.1616" x="76.8306" y="190.166">Process data</text></g><g class="message" data-participant-1="DBX" data-participant-2="LAND"><polygon fill="#181818" points="269.939,220.2188,259.939,224.2188,269.939,228.2188,265.939,224.2188" style="stroke:#181818;stroke-width:1;"/><line style="stroke:#181818;stroke-width:1;" x1="263.939" x2="354.2485" y1="224.2188" y2="224.2188"/><text fill="#000000" font-family="sans-serif" font-size="13" lengthAdjust="spacing" textLength="30.8242" x="275.939" y="219.4766">Read</text></g><g class="message" data-participant-1="DBX" data-participant-2="DQ"><polygon fill="#181818" points="463.4268,249.5293,473.4268,253.5293,463.4268,257.5293,467.4268,253.5293" style="stroke:#181818;stroke-width:1;"/><line style="stroke:#181818;stroke-width:1;" x1="355.2485" x2="469.4268" y1="253.5293" y2="253.5293"/><text fill="#000000" font-family="sans-serif" font-size="13" lengthAdjust="spacing" textLength="50.6606" x="362.2485" y="248.7871">Validate</text></g><path d="M10,268.5293 L72.1387,268.5293 L72.1387,275.8398 L62.1387,285.8398 L10,285.8398 L10,268.5293" fill="#EEEEEE" style="stroke:#000000;stroke-width:1.5;"/><rect fill="none" height="149.5078" style="stroke:#000000;stroke-width:1.5;" width="834.7236" x="10" y="268.5293"/><text fill="#000000" font-family="sans-serif" font-size="13" font-weight="bold" lengthAdjust="spacing" textLength="17.1387" x="25" y="282.0977">alt</text><text fill="#000000" font-family="sans-serif" font-size="11" font-weight="bold" lengthAdjust="spacing" textLength="91.9424" x="87.1387" y="281.1641">[Quality Passed]</text><g class="message" data-participant-1="DBX" data-participant-2="DELTA"><polygon fill="#181818" points="565.8306,303.1504,575.8306,307.1504,565.8306,311.1504,569.8306,307.1504" style="stroke:#181818;stroke-width:1;"/><line style="stroke:#181818;stroke-width:1;" x1="355.2485" x2="571.8306" y1="307.1504" y2="307.1504"/><text fill="#000000" font-family="sans-serif" font-size="13" lengthAdjust="spacing" textLength="32.3032" x="362.2485" y="302.4082">Write</text></g><g class="message" data-participant-1="DBX" data-participant-2="UC"><polygon fill="#181818" points="666.874,332.4609,676.874,336.4609,666.874,340.4609,670.874,336.4609" style="stroke:#181818;stroke-width:1;"/><line style="stroke:#181818;stroke-width:1;" x1="355.2485" x2="672.874" y1="336.4609" y2="336.4609"/><text fill="#000000" font-family="sans-serif" font-size="13" lengthAdjust="spacing" textLength="107.5928" x="362.2485" y="331.7188">Update metadata</text></g><g class="message" data-participant-1="UC" data-participant-2="CONS"><polygon fill="#181818" points="777.4561,361.7715,787.4561,365.7715,777.4561,369.7715,781.4561,365.7715" style="stroke:#181818;stroke-width:1;"/><line style="stroke:#181818;stroke-width:1;" x1="678.874" x2="783.4561" y1="365.7715" y2="365.7715"/><text fill="#000000" font-family="sans-serif" font-size="13" lengthAdjust="spacing" textLength="86.582" x="685.874" y="361.0293">Enable access</text></g><line style="stroke:#000000;stroke-width:1;stroke-dasharray:2,2;" x1="10" x2="844.7236" y1="374.7715" y2="374.7715"/><text fill="#000000" font-family="sans-serif" font-size="11" font-weight="bold" lengthAdjust="spacing" textLength="86.2275" x="15" y="385.4063">[Quality Failed]</text><g class="message" data-participant-1="DQ" data-participant-2="CTM"><polygon fill="#181818" points="80.8306,406.0371,70.8306,410.0371,80.8306,414.0371,76.8306,410.0371" style="stroke:#181818;stroke-width:1;"/><line style="stroke:#181818;stroke-width:1;" x1="74.8306" x2="474.4268" y1="410.0371" y2="410.0371"/><text fill="#000000" font-family="sans-serif" font-size="13" lengthAdjust="spacing" textLength="74.3691" x="86.8306" y="405.2949">Alert failure</text></g><!--SRC=[NPBDReCm48JlVefLxdq17ogba5Ifo0yDjBqkPaEiE7PaBwhwzhKXgA4STsPszhDWpOOWHqOuUDVsYc5jtBU4e-kz8c07cREXlv8ND_IibRwXPLZilJfJO8_i_08mG5PjvuwDxQ91Epl8czshQ6DDWu5WKQ1jjUq6fLZkydaodTDuhIu1tbmpcFANhxcdxD5e_e7iJEeoMig7WfnCH2hmGgEsAghbV45jXtXC63SUKcTpnmGUHhxzxYX4f8IdvqGZeVAwwyY3STYAE4b2Wf7mwJKJf6kcGBnVfXTM5C8enCbVu9tYYliaBoLyHBZe8e66OK8zO0ZK2hX_apsXtIl_QtKceRwbHN0bng5tijHPSYGg2IkBJVmDKANp19duWbFf6hLvB2s7LBMLi3Ja6KvHxpq9ikql]--></g></svg>