<svg xmlns="http://www.w3.org/2000/svg" xmlns:xlink="http://www.w3.org/1999/xlink" contentStyleType="text/css" data-diagram-type="DESCRIPTION" height="515px" preserveAspectRatio="none" style="width:1970px;height:515px;background:#FFFFFF;" version="1.1" viewBox="0 0 1970 515" width="1970px" zoomAndPan="magnify"><title>High-Level Architecture: Azure Databricks Lakehouse with Data Mesh</title><defs/><g><g class="title" data-source-line="2"><text fill="#000000" font-family="sans-serif" font-size="14" font-weight="bold" lengthAdjust="spacing" textLength="504.2871" x="725.8564" y="23.5352">High-Level Architecture: Azure Databricks Lakehouse with Data Mesh</text></g><!--cluster Source Systems--><g class="cluster" data-entity="Source Systems" data-source-line="4" data-uid="ent0002" id="cluster_Source Systems"><path d="M1608.5,173.9783 L1721.7119,173.9783 A3.75,3.75 0 0 1 1724.2119,176.4783 L1731.2119,196.4666 L1960.5,196.4666 A2.5,2.5 0 0 1 1963,198.9666 L1963,258.9583 A2.5,2.5 0 0 1 1960.5,261.4583 L1608.5,261.4583 A2.5,2.5 0 0 1 1606,258.9583 L1606,176.4783 A2.5,2.5 0 0 1 1608.5,173.9783" fill="none" style="stroke:#000000;stroke-width:1.5;"/><line style="stroke:#000000;stroke-width:1.5;" x1="1606" x2="1731.2119" y1="196.4666" y2="196.4666"/><text fill="#000000" font-family="sans-serif" font-size="14" font-weight="bold" lengthAdjust="spacing" textLength="112.2119" x="1610" y="189.5134">Source Systems</text></g><!--cluster Control Plane--><g class="cluster" data-entity="Control Plane" data-source-line="10" data-uid="ent0006" id="cluster_Control Plane"><path d="M8.5,43.4883 L106.5225,43.4883 A3.75,3.75 0 0 1 109.0225,45.9883 L116.0225,65.9766 L665.5,65.9766 A2.5,2.5 0 0 1 668,68.4766 L668,258.9583 A2.5,2.5 0 0 1 665.5,261.4583 L8.5,261.4583 A2.5,2.5 0 0 1 6,258.9583 L6,45.9883 A2.5,2.5 0 0 1 8.5,43.4883" fill="none" style="stroke:#000000;stroke-width:1.5;"/><line style="stroke:#000000;stroke-width:1.5;" x1="6" x2="116.0225" y1="65.9766" y2="65.9766"/><text fill="#000000" font-family="sans-serif" font-size="14" font-weight="bold" lengthAdjust="spacing" textLength="97.0225" x="10" y="59.0234">Control Plane</text></g><!--cluster Data Lake--><g class="cluster" data-entity="Data Lake" data-source-line="18" data-uid="ent0012" id="cluster_Data Lake"><path d="M921.5,309.4583 L993.7852,309.4583 A3.75,3.75 0 0 1 996.2852,311.9583 L1003.2852,331.9466 L1442.5,331.9466 A2.5,2.5 0 0 1 1445,334.4466 L1445,394.4483 A2.5,2.5 0 0 1 1442.5,396.9483 L921.5,396.9483 A2.5,2.5 0 0 1 919,394.4483 L919,311.9583 A2.5,2.5 0 0 1 921.5,309.4583" fill="none" style="stroke:#000000;stroke-width:1.5;"/><line style="stroke:#000000;stroke-width:1.5;" x1="919" x2="1003.2852" y1="331.9466" y2="331.9466"/><text fill="#000000" font-family="sans-serif" font-size="14" font-weight="bold" lengthAdjust="spacing" textLength="71.2852" x="923" y="324.9934">Data Lake</text></g><!--cluster Domain Workspaces--><g class="cluster" data-entity="Domain Workspaces" data-source-line="25" data-uid="ent0017" id="cluster_Domain Workspaces"><path d="M694.5,130.9783 L841.5225,130.9783 A3.75,3.75 0 0 1 844.0225,133.4783 L851.0225,153.4666 L1579.5,153.4666 A2.5,2.5 0 0 1 1582,155.9666 L1582,282.9583 A2.5,2.5 0 0 1 1579.5,285.4583 L694.5,285.4583 A2.5,2.5 0 0 1 692,282.9583 L692,133.4783 A2.5,2.5 0 0 1 694.5,130.9783" fill="none" style="stroke:#000000;stroke-width:1.5;"/><line style="stroke:#000000;stroke-width:1.5;" x1="692" x2="851.0225" y1="153.4666" y2="153.4666"/><text fill="#000000" font-family="sans-serif" font-size="14" font-weight="bold" lengthAdjust="spacing" textLength="146.0225" x="696" y="146.5134">Domain Workspaces</text></g><!--cluster Domain: Payments--><g class="cluster" data-entity="Domain. Payments" data-source-line="26" data-uid="ent0018" id="cluster_Domain. Payments"><path d="M718.5,173.9783 L852.7119,173.9783 A3.75,3.75 0 0 1 855.2119,176.4783 L862.2119,196.4666 L1142.5,196.4666 A2.5,2.5 0 0 1 1145,198.9666 L1145,258.9583 A2.5,2.5 0 0 1 1142.5,261.4583 L718.5,261.4583 A2.5,2.5 0 0 1 716,258.9583 L716,176.4783 A2.5,2.5 0 0 1 718.5,173.9783" fill="none" style="stroke:#000000;stroke-width:1.5;"/><line style="stroke:#000000;stroke-width:1.5;" x1="716" x2="862.2119" y1="196.4666" y2="196.4666"/><text fill="#000000" font-family="sans-serif" font-size="14" font-weight="bold" lengthAdjust="spacing" textLength="133.2119" x="720" y="189.5134">Domain: Payments</text></g><!--cluster Domain: Wealth--><g class="cluster" data-entity="Domain. Wealth" data-source-line="30" data-uid="ent0021" id="cluster_Domain. Wealth"><path d="M1171.5,173.9783 L1284.6777,173.9783 A3.75,3.75 0 0 1 1287.1777,176.4783 L1294.1777,196.4666 L1555.5,196.4666 A2.5,2.5 0 0 1 1558,198.9666 L1558,258.9583 A2.5,2.5 0 0 1 1555.5,261.4583 L1171.5,261.4583 A2.5,2.5 0 0 1 1169,258.9583 L1169,176.4783 A2.5,2.5 0 0 1 1171.5,173.9783" fill="none" style="stroke:#000000;stroke-width:1.5;"/><line style="stroke:#000000;stroke-width:1.5;" x1="1169" x2="1294.1777" y1="196.4666" y2="196.4666"/><text fill="#000000" font-family="sans-serif" font-size="14" font-weight="bold" lengthAdjust="spacing" textLength="112.1777" x="1173" y="189.5134">Domain: Wealth</text></g><!--cluster Consumers--><g class="cluster" data-entity="Consumers" data-source-line="36" data-uid="ent0024" id="cluster_Consumers"><path d="M1029.5,420.9483 L1111.7793,420.9483 A3.75,3.75 0 0 1 1114.2793,423.4483 L1121.2793,443.4366 L1505.5,443.4366 A2.5,2.5 0 0 1 1508,445.9366 L1508,505.9383 A2.5,2.5 0 0 1 1505.5,508.4383 L1029.5,508.4383 A2.5,2.5 0 0 1 1027,505.9383 L1027,423.4483 A2.5,2.5 0 0 1 1029.5,420.9483" fill="none" style="stroke:#000000;stroke-width:1.5;"/><line style="stroke:#000000;stroke-width:1.5;" x1="1027" x2="1121.2793" y1="443.4366" y2="443.4366"/><text fill="#000000" font-family="sans-serif" font-size="14" font-weight="bold" lengthAdjust="spacing" textLength="81.2793" x="1031" y="436.4834">Consumers</text></g><!--entity MF--><g class="entity" data-entity="MF" data-source-line="5" data-uid="ent0003" id="entity_MF"><rect fill="#F1F1F1" height="36.4883" rx="2.5" ry="2.5" style="stroke:#181818;stroke-width:0.5;" width="92.0029" x="1622" y="208.9783"/><text fill="#000000" font-family="sans-serif" font-size="14" lengthAdjust="spacing" textLength="72.0029" x="1632" y="232.5134">Mainframe</text></g><!--entity DB--><g class="entity" data-entity="DB" data-source-line="6" data-uid="ent0004" id="entity_DB"><rect fill="#F1F1F1" height="36.4883" rx="2.5" ry="2.5" style="stroke:#181818;stroke-width:0.5;" width="66.9902" x="1748.5" y="208.9783"/><text fill="#000000" font-family="sans-serif" font-size="14" lengthAdjust="spacing" textLength="46.9902" x="1758.5" y="232.5134">RDBMS</text></g><!--entity FS--><g class="entity" data-entity="FS" data-source-line="7" data-uid="ent0005" id="entity_FS"><rect fill="#F1F1F1" height="36.4883" rx="2.5" ry="2.5" style="stroke:#181818;stroke-width:0.5;" width="96.8086" x="1850.6" y="208.9783"/><text fill="#000000" font-family="sans-serif" font-size="14" lengthAdjust="spacing" textLength="76.8086" x="1860.6" y="232.5134">File Servers</text></g><!--entity ID--><g class="entity" data-entity="ID" data-source-line="11" data-uid="ent0007" id="entity_ID"><rect fill="#F1F1F1" height="36.4883" rx="2.5" ry="2.5" style="stroke:#181818;stroke-width:0.5;" width="143.3135" x="22.34" y="78.4883"/><text fill="#000000" font-family="sans-serif" font-size="14" lengthAdjust="spacing" textLength="123.3135" x="32.34" y="102.0234">Identity &amp; Security</text></g><!--entity UC--><g class="entity" data-entity="UC" data-source-line="12" data-uid="ent0008" id="entity_UC"><rect fill="#F1F1F1" height="36.4883" rx="2.5" ry="2.5" style="stroke:#181818;stroke-width:0.5;" width="111.1777" x="344.41" y="78.4883"/><text fill="#000000" font-family="sans-serif" font-size="14" lengthAdjust="spacing" textLength="91.1777" x="354.41" y="102.0234">Unity Catalog</text></g><!--entity CTM--><g class="entity" data-entity="CTM" data-source-line="13" data-uid="ent0009" id="entity_CTM"><rect fill="#F1F1F1" height="36.4883" rx="2.5" ry="2.5" style="stroke:#181818;stroke-width:0.5;" width="161.4492" x="490.28" y="78.4883"/><text fill="#000000" font-family="sans-serif" font-size="14" lengthAdjust="spacing" textLength="141.4492" x="500.28" y="102.0234">Control-M Scheduler</text></g><!--entity OBS--><g class="entity" data-entity="OBS" data-source-line="14" data-uid="ent0010" id="entity_OBS"><rect fill="#F1F1F1" height="36.4883" rx="2.5" ry="2.5" style="stroke:#181818;stroke-width:0.5;" width="108.833" x="200.58" y="78.4883"/><text fill="#000000" font-family="sans-serif" font-size="14" lengthAdjust="spacing" textLength="88.833" x="210.58" y="102.0234">Observability</text></g><!--entity PORTAL--><g class="entity" data-entity="PORTAL" data-source-line="15" data-uid="ent0011" id="entity_PORTAL"><rect fill="#F1F1F1" height="36.4883" rx="2.5" ry="2.5" style="stroke:#181818;stroke-width:0.5;" width="120.8096" x="33.6" y="208.9783"/><text fill="#000000" font-family="sans-serif" font-size="14" lengthAdjust="spacing" textLength="100.8096" x="43.6" y="232.5134">Platform Portal</text></g><!--entity LAND--><g class="entity" data-entity="LAND" data-source-line="19" data-uid="ent0013" id="entity_LAND"><rect fill="#F1F1F1" height="36.4883" rx="2.5" ry="2.5" style="stroke:#181818;stroke-width:0.5;" width="74.1611" x="1354.92" y="344.4583"/><text fill="#000000" font-family="sans-serif" font-size="14" lengthAdjust="spacing" textLength="54.1611" x="1364.92" y="367.9934">Landing</text></g><!--entity BRONZE--><g class="entity" data-entity="BRONZE" data-source-line="20" data-uid="ent0014" id="entity_BRONZE"><rect fill="#F1F1F1" height="36.4883" rx="2.5" ry="2.5" style="stroke:#181818;stroke-width:0.5;" width="104.875" x="934.56" y="344.4583"/><text fill="#000000" font-family="sans-serif" font-size="14" lengthAdjust="spacing" textLength="84.875" x="944.56" y="367.9934">Bronze Zone</text></g><!--entity SILVER--><g class="entity" data-entity="SILVER" data-source-line="21" data-uid="ent0015" id="entity_SILVER"><rect fill="#F1F1F1" height="36.4883" rx="2.5" ry="2.5" style="stroke:#181818;stroke-width:0.5;" width="94.3887" x="1074.81" y="344.4583"/><text fill="#000000" font-family="sans-serif" font-size="14" lengthAdjust="spacing" textLength="74.3887" x="1084.81" y="367.9934">Silver Zone</text></g><!--entity GOLD--><g class="entity" data-entity="GOLD" data-source-line="22" data-uid="ent0016" id="entity_GOLD"><rect fill="#F1F1F1" height="36.4883" rx="2.5" ry="2.5" style="stroke:#181818;stroke-width:0.5;" width="115.1152" x="1204.44" y="344.4583"/><text fill="#000000" font-family="sans-serif" font-size="14" lengthAdjust="spacing" textLength="95.1152" x="1214.44" y="367.9934">Gold Products</text></g><!--entity DBX1--><g class="entity" data-entity="DBX1" data-source-line="27" data-uid="ent0019" id="entity_DBX1"><rect fill="#F1F1F1" height="36.4883" rx="2.5" ry="2.5" style="stroke:#181818;stroke-width:0.5;" width="173.9385" x="732.03" y="208.9783"/><text fill="#000000" font-family="sans-serif" font-size="14" lengthAdjust="spacing" textLength="153.9385" x="742.03" y="232.5134">Databricks - Payments</text></g><!--entity ORCH1--><g class="entity" data-entity="ORCH1" data-source-line="28" data-uid="ent0020" id="entity_ORCH1"><rect fill="#F1F1F1" height="36.4883" rx="2.5" ry="2.5" style="stroke:#181818;stroke-width:0.5;" width="187.3369" x="941.33" y="208.9783"/><text fill="#000000" font-family="sans-serif" font-size="14" lengthAdjust="spacing" textLength="167.3369" x="951.33" y="232.5134">Orchestrator - Payments</text></g><!--entity DBX2--><g class="entity" data-entity="DBX2" data-source-line="31" data-uid="ent0022" id="entity_DBX2"><rect fill="#F1F1F1" height="36.4883" rx="2.5" ry="2.5" style="stroke:#181818;stroke-width:0.5;" width="154.7021" x="1184.65" y="208.9783"/><text fill="#000000" font-family="sans-serif" font-size="14" lengthAdjust="spacing" textLength="134.7021" x="1194.65" y="232.5134">Databricks - Wealth</text></g><!--entity ORCH2--><g class="entity" data-entity="ORCH2" data-source-line="32" data-uid="ent0023" id="entity_ORCH2"><rect fill="#F1F1F1" height="36.4883" rx="2.5" ry="2.5" style="stroke:#181818;stroke-width:0.5;" width="168.1006" x="1373.95" y="208.9783"/><text fill="#000000" font-family="sans-serif" font-size="14" lengthAdjust="spacing" textLength="148.1006" x="1383.95" y="232.5134">Orchestrator - Wealth</text></g><!--entity SQL--><g class="entity" data-entity="SQL" data-source-line="37" data-uid="ent0025" id="entity_SQL"><rect fill="#F1F1F1" height="36.4883" rx="2.5" ry="2.5" style="stroke:#181818;stroke-width:0.5;" width="111.3418" x="1043.33" y="455.9483"/><text fill="#000000" font-family="sans-serif" font-size="14" lengthAdjust="spacing" textLength="91.3418" x="1053.33" y="479.4834">SQL Analytics</text></g><!--entity API--><g class="entity" data-entity="API" data-source-line="38" data-uid="ent0026" id="entity_API"><rect fill="#F1F1F1" height="36.4883" rx="2.5" ry="2.5" style="stroke:#181818;stroke-width:0.5;" width="48.5674" x="1189.72" y="455.9483"/><text fill="#000000" font-family="sans-serif" font-size="14" lengthAdjust="spacing" textLength="28.5674" x="1199.72" y="479.4834">APIs</text></g><!--entity BI--><g class="entity" data-entity="BI" data-source-line="39" data-uid="ent0027" id="entity_BI"><rect fill="#F1F1F1" height="36.4883" rx="2.5" ry="2.5" style="stroke:#181818;stroke-width:0.5;" width="73.751" x="1273.12" y="455.9483"/><text fill="#000000" font-family="sans-serif" font-size="14" lengthAdjust="spacing" textLength="53.751" x="1283.12" y="479.4834">BI Tools</text></g><!--entity SHARE--><g class="entity" data-entity="SHARE" data-source-line="40" data-uid="ent0028" id="entity_SHARE"><rect fill="#F1F1F1" height="36.4883" rx="2.5" ry="2.5" style="stroke:#181818;stroke-width:0.5;" width="110.8838" x="1381.56" y="455.9483"/><text fill="#000000" font-family="sans-serif" font-size="14" lengthAdjust="spacing" textLength="90.8838" x="1391.56" y="479.4834">Delta Sharing</text></g><!--link MF to LAND--><g class="link" data-entity-1="MF" data-entity-2="LAND" data-source-line="44" data-uid="lnk29" id="link_MF_LAND"><path d="M1641.04,245.7083 C1619.14,259.5383 1587.21,278.8883 1558,293.4583 C1514.92,314.9483 1468.9973,333.2497 1434.8973,346.0497" fill="none" id="MF-to-LAND" style="stroke:#181818;stroke-width:1;"/><polygon fill="#181818" points="1429.28,348.1583,1439.1116,348.7403,1433.9611,346.4012,1436.3002,341.2506,1429.28,348.1583" style="stroke:#181818;stroke-width:1;"/></g><!--link DB to LAND--><g class="link" data-entity-1="DB" data-entity-2="LAND" data-source-line="45" data-uid="lnk30" id="link_DB_LAND"><path d="M1773.23,245.7983 C1764.77,260.8583 1750.53,281.9083 1732,293.4583 C1635.31,353.7383 1501.7699,362.1602 1435.5699,362.4702" fill="none" id="DB-to-LAND" style="stroke:#181818;stroke-width:1;"/><polygon fill="#181818" points="1429.57,362.4983,1438.5886,366.4561,1434.5699,362.4749,1438.5512,358.4562,1429.57,362.4983" style="stroke:#181818;stroke-width:1;"/></g><!--link FS to LAND--><g class="link" data-entity-1="FS" data-entity-2="LAND" data-source-line="46" data-uid="lnk31" id="link_FS_LAND"><path d="M1886.47,245.7183 C1874.54,260.9583 1855.16,282.2983 1833,293.4583 C1762.16,329.1383 1528.5207,350.9172 1435.4107,358.4072" fill="none" id="FS-to-LAND" style="stroke:#181818;stroke-width:1;"/><polygon fill="#181818" points="1429.43,358.8883,1438.7218,362.1538,1434.4139,358.4874,1438.0803,354.1795,1429.43,358.8883" style="stroke:#181818;stroke-width:1;"/></g><!--link CTM to ORCH1--><g class="link" data-entity-1="CTM" data-entity-2="ORCH1" data-source-line="48" data-uid="lnk32" id="link_CTM_ORCH1"><path d="M652.03,97.3983 C740.56,98.1083 876.04,102.6683 923,122.9783 C966.21,141.6583 999.8142,179.5284 1018.5142,203.7584" fill="none" id="CTM-to-ORCH1" style="stroke:#181818;stroke-width:1;"/><polygon fill="#181818" points="1022.18,208.5083,1019.8478,198.9395,1019.1251,204.55,1013.5146,203.8273,1022.18,208.5083" style="stroke:#181818;stroke-width:1;"/></g><!--link CTM to ORCH2--><g class="link" data-entity-1="CTM" data-entity-2="ORCH2" data-source-line="49" data-uid="lnk33" id="link_CTM_ORCH2"><path d="M651.88,98.7083 C846.11,101.2683 1325.17,108.9783 1357,122.9783 C1398.09,141.0383 1427.7898,179.314 1443.9298,203.714" fill="none" id="CTM-to-ORCH2" style="stroke:#181818;stroke-width:1;"/><polygon fill="#181818" points="1447.24,208.7183,1445.6109,199.0051,1444.4815,204.5481,1438.9385,203.4187,1447.24,208.7183" style="stroke:#181818;stroke-width:1;"/></g><!--link LAND to DBX1--><g class="link" data-entity-1="LAND" data-entity-2="DBX1" data-source-line="51" data-uid="lnk34" id="link_LAND_DBX1"><path d="M1381.66,344.0683 C1372.12,329.6583 1356.48,310.2783 1337,301.4583 C1295.19,282.5283 968.01,306.4883 924,293.4583 C891.9,283.9583 864.6396,265.5258 844.5596,249.6758" fill="none" id="LAND-to-DBX1" style="stroke:#181818;stroke-width:1;"/><polygon fill="#181818" points="839.85,245.9583,844.4361,254.6742,843.7747,249.0562,849.3927,248.3948,839.85,245.9583" style="stroke:#181818;stroke-width:1;"/></g><!--link DBX1 to BRONZE--><g class="link" data-entity-1="DBX1" data-entity-2="BRONZE" data-source-line="52" data-uid="lnk35" id="link_DBX1_BRONZE"><path d="M841.31,245.9483 C873.53,271.5483 928.0417,314.8665 960.1717,340.3865" fill="none" id="DBX1-to-BRONZE" style="stroke:#181818;stroke-width:1;"/><polygon fill="#181818" points="964.87,344.1183,960.3104,335.3885,960.9547,341.0085,955.3347,341.6529,964.87,344.1183" style="stroke:#181818;stroke-width:1;"/></g><!--link DBX1 to SILVER--><g class="link" data-entity-1="DBX1" data-entity-2="SILVER" data-source-line="53" data-uid="lnk36" id="link_DBX1_SILVER"><path d="M840.33,245.9583 C860.49,261.5883 892.3,283.3783 924,293.4583 C952.22,302.4383 1029.77,289.8283 1057,301.4583 C1078.37,310.5883 1093.3209,325.2807 1105.1309,339.5907" fill="none" id="DBX1-to-SILVER" style="stroke:#181818;stroke-width:1;"/><polygon fill="#181818" points="1108.95,344.2183,1106.3064,334.7309,1105.7674,340.362,1100.1363,339.823,1108.95,344.2183" style="stroke:#181818;stroke-width:1;"/></g><!--link DBX1 to GOLD--><g class="link" data-entity-1="DBX1" data-entity-2="GOLD" data-source-line="54" data-uid="lnk37" id="link_DBX1_GOLD"><path d="M839.88,245.8783 C859.97,261.6783 891.95,283.7883 924,293.4583 C979.98,310.3583 1132.15,281.2183 1187,301.4583 C1210.66,310.1983 1228.3313,325.273 1242.2713,339.703" fill="none" id="DBX1-to-GOLD" style="stroke:#181818;stroke-width:1;"/><polygon fill="#181818" points="1246.44,344.0183,1243.0637,334.7662,1242.966,340.4222,1237.31,340.3245,1246.44,344.0183" style="stroke:#181818;stroke-width:1;"/></g><!--link LAND to DBX2--><g class="link" data-entity-1="LAND" data-entity-2="DBX2" data-source-line="56" data-uid="lnk38" id="link_LAND_DBX2"><path d="M1376.38,344.0583 C1365.51,331.9183 1350.59,315.5083 1337,301.4583 C1318.15,281.9683 1300.1804,264.4909 1284.8204,249.8309" fill="none" id="LAND-to-DBX2" style="stroke:#181818;stroke-width:1;"/><polygon fill="#181818" points="1280.48,245.6883,1284.2289,254.7958,1284.097,249.1404,1289.7523,249.0086,1280.48,245.6883" style="stroke:#181818;stroke-width:1;"/></g><!--link DBX2 to BRONZE--><g class="link" data-entity-1="DBX2" data-entity-2="BRONZE" data-source-line="57" data-uid="lnk39" id="link_DBX2_BRONZE"><path d="M1237.82,245.6983 C1215.07,261.1483 1179.44,282.8183 1145,293.4583 C1107.48,305.0583 1093.16,286.1483 1057,301.4583 C1034.85,310.8383 1018.6763,325.478 1005.7163,339.668" fill="none" id="DBX2-to-BRONZE" style="stroke:#181818;stroke-width:1;"/><polygon fill="#181818" points="1001.67,344.0983,1010.693,340.1503,1005.0419,340.4064,1004.7859,334.7553,1001.67,344.0983" style="stroke:#181818;stroke-width:1;"/></g><!--link DBX2 to SILVER--><g class="link" data-entity-1="DBX2" data-entity-2="SILVER" data-source-line="58" data-uid="lnk40" id="link_DBX2_SILVER"><path d="M1243.41,245.9483 C1216.48,271.6183 1171.283,314.7184 1144.563,340.1884" fill="none" id="DBX2-to-SILVER" style="stroke:#181818;stroke-width:1;"/><polygon fill="#181818" points="1140.22,344.3283,1149.4944,341.0139,1143.8392,340.8784,1143.9746,335.2232,1140.22,344.3283" style="stroke:#181818;stroke-width:1;"/></g><!--link DBX2 to GOLD--><g class="link" data-entity-1="DBX2" data-entity-2="GOLD" data-source-line="59" data-uid="lnk41" id="link_DBX2_GOLD"><path d="M1262,245.9483 C1262,271.6183 1262,312.8583 1262,338.3283" fill="none" id="DBX2-to-GOLD" style="stroke:#181818;stroke-width:1;"/><polygon fill="#181818" points="1262,344.3283,1266,335.3283,1262,339.3283,1258,335.3283,1262,344.3283" style="stroke:#181818;stroke-width:1;"/></g><!--link UC to DBX1--><g class="link" data-entity-1="UC" data-entity-2="DBX1" data-source-line="61" data-uid="lnk42" id="link_UC_DBX1"><path d="M455.99,112.0983 C461.71,113.2183 467.45,114.2083 473,114.9783 C515.97,120.8783 626.84,109.3183 668,122.9783 C721.95,140.8783 769.8634,180.157 796.4634,204.617" fill="none" id="UC-to-DBX1" style="stroke:#181818;stroke-width:1;"/><polygon fill="#181818" points="800.88,208.6783,796.9626,199.642,797.1995,205.2939,791.5476,205.5308,800.88,208.6783" style="stroke:#181818;stroke-width:1;"/></g><!--link UC to DBX2--><g class="link" data-entity-1="UC" data-entity-2="DBX2" data-source-line="62" data-uid="lnk43" id="link_UC_DBX2"><path d="M455.97,112.2583 C461.69,113.3583 467.44,114.2883 473,114.9783 C510.06,119.5183 1110.16,109.5583 1145,122.9783 C1190.25,140.3983 1225.7073,179.2228 1245.1773,203.8328" fill="none" id="UC-to-DBX2" style="stroke:#181818;stroke-width:1;"/><polygon fill="#181818" points="1248.9,208.5383,1246.4529,198.9983,1245.7978,204.6171,1240.179,203.9619,1248.9,208.5383" style="stroke:#181818;stroke-width:1;"/></g><!--link GOLD to SQL--><g class="link" data-entity-1="GOLD" data-entity-2="SQL" data-source-line="64" data-uid="lnk44" id="link_GOLD_SQL"><path d="M1230.3,381.2583 C1216.95,388.6183 1201.24,397.2383 1187,404.9483 C1180.36,408.5483 1178.28,408.7483 1172,412.9483 C1152.61,425.9283 1136.7567,439.0646 1122.4867,451.7346" fill="none" id="GOLD-to-SQL" style="stroke:#181818;stroke-width:1;"/><polygon fill="#181818" points="1118,455.7183,1127.3858,452.734,1121.7389,452.3986,1122.0743,446.7517,1118,455.7183" style="stroke:#181818;stroke-width:1;"/></g><!--link GOLD to API--><g class="link" data-entity-1="GOLD" data-entity-2="API" data-source-line="65" data-uid="lnk45" id="link_GOLD_API"><path d="M1254.29,381.2983 C1245.33,401.7283 1233.0496,429.7434 1224.0996,450.1534" fill="none" id="GOLD-to-API" style="stroke:#181818;stroke-width:1;"/><polygon fill="#181818" points="1221.69,455.6483,1228.9676,449.0123,1223.698,451.0692,1221.6411,445.7995,1221.69,455.6483" style="stroke:#181818;stroke-width:1;"/></g><!--link GOLD to BI--><g class="link" data-entity-1="GOLD" data-entity-2="BI" data-source-line="66" data-uid="lnk46" id="link_GOLD_BI"><path d="M1269.71,381.2983 C1278.67,401.7283 1290.9504,429.7434 1299.9004,450.1534" fill="none" id="GOLD-to-BI" style="stroke:#181818;stroke-width:1;"/><polygon fill="#181818" points="1302.31,455.6483,1302.3589,445.7995,1300.302,451.0692,1295.0324,449.0123,1302.31,455.6483" style="stroke:#181818;stroke-width:1;"/></g><!--link GOLD to SHARE--><g class="link" data-entity-1="GOLD" data-entity-2="SHARE" data-source-line="67" data-uid="lnk47" id="link_GOLD_SHARE"><path d="M1290.49,381.2583 C1304.2,389.2183 1321.09,398.3083 1337,404.9483 C1348.55,409.7683 1352.95,407.0683 1364,412.9483 C1385.18,424.2183 1401.6144,438.0702 1415.5544,451.4702" fill="none" id="GOLD-to-SHARE" style="stroke:#181818;stroke-width:1;"/><polygon fill="#181818" points="1419.88,455.6283,1416.1636,446.5075,1416.2753,452.1633,1410.6196,452.275,1419.88,455.6283" style="stroke:#181818;stroke-width:1;"/></g><!--SRC=[TL9DRvj04BtpAqOvj2SVoZ67Ic3is2e4rsitKQeUrdXiLbvOQtT9v5JvxnrsCSPMmm5cvit7uysOWwYFNFCA2bKTLOsrPVOa4JGMbjTxYO4LbloPs9UZ55zHGgIBKbZ26utt4BtJ1n9k-KQBuc0WvGSiLMCGteGj7G8PcZ88Zhmuy3t27LEDBX3OoLYip1ty3O2UtnaNzOwuu1_W1hAfZowJE6CkaiG-CXL4YA5-HMqSC6N1nw3zMDLMAmaBoMliky-tz7F2dk0BrHQD9jCLpnEFh-iM71DTgVOEMOyzqlKRPS2A4hUDHEtmyIhp2Vd641k-4VBSD8-PXuY3tIbTmK9fwkp0HRvSHUaLPQTIgrnFD-NrLjIUI1ezTYHZhUftX1VQb4FYPVxuCl4O4v8KkM1idlwQB3tseEGM5bfjcy9wpHxoDBcce2hI7vwKFXWAOh-NcunxMF1JHLhs2Mx2u096VKQtjkTlbxoShWUDrTmgVPkPBySpd_hn_ybFoAKjFv_hyVFKyDEfWxnsPjZDl3aYqrHqOVr6sCyKefhBanM5vqiH3qMBkO-GqIrg3Ykbf8_6NJ11IMjc9TVdpR9Pj9oqSx_23pp1Jget4sHJ68s- -wqdySMUieiTqF4vpsiszC8WQ5ESxxHlNyxhhgNtkmlfVNSJLyLX2uOtnU5DSJWeNeylSoysKMfXNqUYzKwhL-_40ziBymy0]--></g></svg>