<svg xmlns="http://www.w3.org/2000/svg" xmlns:xlink="http://www.w3.org/1999/xlink" contentStyleType="text/css" data-diagram-type="DESCRIPTION" height="449px" preserveAspectRatio="none" style="width:1003px;height:449px;background:#FFFFFF;" version="1.1" viewBox="0 0 1003 449" width="1003px" zoomAndPan="magnify"><title>Platform Component View</title><defs/><g><g class="title" data-source-line="1"><text fill="#000000" font-family="sans-serif" font-size="14" font-weight="bold" lengthAdjust="spacing" textLength="188.5488" x="400.2256" y="23.5352">Platform Component View</text></g><!--cluster Control--><g class="cluster" data-entity="Control" data-source-line="2" data-uid="ent0002" id="cluster_Control"><path d="M458.5,116.6183 L513.1416,116.6183 A3.75,3.75 0 0 1 515.6416,119.1183 L522.6416,139.1066 L993.5,139.1066 A2.5,2.5 0 0 1 996,141.6066 L996,211.5983 A2.5,2.5 0 0 1 993.5,214.0983 L458.5,214.0983 A2.5,2.5 0 0 1 456,211.5983 L456,119.1183 A2.5,2.5 0 0 1 458.5,116.6183" fill="none" style="stroke:#000000;stroke-width:1.5;"/><line style="stroke:#000000;stroke-width:1.5;" x1="456" x2="522.6416" y1="139.1066" y2="139.1066"/><text fill="#000000" font-family="sans-serif" font-size="14" font-weight="bold" lengthAdjust="spacing" textLength="53.6416" x="460" y="132.1534">Control</text></g><!--cluster Data--><g class="cluster" data-entity="Data" data-source-line="9" data-uid="ent0007" id="cluster_Data"><path d="M582.5,238.0983 L616.7363,238.0983 A3.75,3.75 0 0 1 619.2363,240.5983 L626.2363,260.5866 L848.5,260.5866 A2.5,2.5 0 0 1 851,263.0866 L851,439.5783 A2.5,2.5 0 0 1 848.5,442.0783 L582.5,442.0783 A2.5,2.5 0 0 1 580,439.5783 L580,240.5983 A2.5,2.5 0 0 1 582.5,238.0983" fill="none" style="stroke:#000000;stroke-width:1.5;"/><line style="stroke:#000000;stroke-width:1.5;" x1="580" x2="626.2363" y1="260.5866" y2="260.5866"/><text fill="#000000" font-family="sans-serif" font-size="14" font-weight="bold" lengthAdjust="spacing" textLength="33.2363" x="584" y="253.6334">Data</text></g><!--cluster Governance--><g class="cluster" data-entity="Governance" data-source-line="16" data-uid="ent0012" id="cluster_Governance"><path d="M8.5,116.6183 L94.0264,116.6183 A3.75,3.75 0 0 1 96.5264,119.1183 L103.5264,139.1066 L429.5,139.1066 A2.5,2.5 0 0 1 432,141.6066 L432,211.5983 A2.5,2.5 0 0 1 429.5,214.0983 L8.5,214.0983 A2.5,2.5 0 0 1 6,211.5983 L6,119.1183 A2.5,2.5 0 0 1 8.5,116.6183" fill="none" style="stroke:#000000;stroke-width:1.5;"/><line style="stroke:#000000;stroke-width:1.5;" x1="6" x2="103.5264" y1="139.1066" y2="139.1066"/><text fill="#000000" font-family="sans-serif" font-size="14" font-weight="bold" lengthAdjust="spacing" textLength="84.5264" x="10" y="132.1534">Governance</text></g><!--entity Identity--><g class="entity" data-entity="Identity" data-source-line="3" data-uid="ent0003" id="entity_Identity"><rect fill="#F1F1F1" height="46.4883" rx="2.5" ry="2.5" style="stroke:#181818;stroke-width:0.5;" width="91.167" x="472.42" y="151.6183"/><rect fill="#F1F1F1" height="10" style="stroke:#181818;stroke-width:0.5;" width="15" x="543.587" y="156.6183"/><rect fill="#F1F1F1" height="2" style="stroke:#181818;stroke-width:0.5;" width="4" x="541.587" y="158.6183"/><rect fill="#F1F1F1" height="2" style="stroke:#181818;stroke-width:0.5;" width="4" x="541.587" y="162.6183"/><text fill="#000000" font-family="sans-serif" font-size="14" lengthAdjust="spacing" textLength="51.167" x="487.42" y="185.1534">Identity</text></g><!--entity Catalog--><g class="entity" data-entity="Catalog" data-source-line="4" data-uid="ent0004" id="entity_Catalog"><rect fill="#F1F1F1" height="46.4883" rx="2.5" ry="2.5" style="stroke:#181818;stroke-width:0.5;" width="91.7617" x="598.12" y="151.6183"/><rect fill="#F1F1F1" height="10" style="stroke:#181818;stroke-width:0.5;" width="15" x="669.8817" y="156.6183"/><rect fill="#F1F1F1" height="2" style="stroke:#181818;stroke-width:0.5;" width="4" x="667.8817" y="158.6183"/><rect fill="#F1F1F1" height="2" style="stroke:#181818;stroke-width:0.5;" width="4" x="667.8817" y="162.6183"/><text fill="#000000" font-family="sans-serif" font-size="14" lengthAdjust="spacing" textLength="51.7617" x="613.12" y="185.1534">Catalog</text></g><!--entity Scheduler--><g class="entity" data-entity="Scheduler" data-source-line="5" data-uid="ent0005" id="entity_Scheduler"><rect fill="#F1F1F1" height="46.4883" rx="2.5" ry="2.5" style="stroke:#181818;stroke-width:0.5;" width="106.2744" x="724.86" y="151.6183"/><rect fill="#F1F1F1" height="10" style="stroke:#181818;stroke-width:0.5;" width="15" x="811.1344" y="156.6183"/><rect fill="#F1F1F1" height="2" style="stroke:#181818;stroke-width:0.5;" width="4" x="809.1344" y="158.6183"/><rect fill="#F1F1F1" height="2" style="stroke:#181818;stroke-width:0.5;" width="4" x="809.1344" y="162.6183"/><text fill="#000000" font-family="sans-serif" font-size="14" lengthAdjust="spacing" textLength="66.2744" x="739.86" y="185.1534">Scheduler</text></g><!--entity Monitoring--><g class="entity" data-entity="Monitoring" data-source-line="6" data-uid="ent0006" id="entity_Monitoring"><rect fill="#F1F1F1" height="46.4883" rx="2.5" ry="2.5" style="stroke:#181818;stroke-width:0.5;" width="114.4229" x="865.79" y="151.6183"/><rect fill="#F1F1F1" height="10" style="stroke:#181818;stroke-width:0.5;" width="15" x="960.2129" y="156.6183"/><rect fill="#F1F1F1" height="2" style="stroke:#181818;stroke-width:0.5;" width="4" x="958.2129" y="158.6183"/><rect fill="#F1F1F1" height="2" style="stroke:#181818;stroke-width:0.5;" width="4" x="958.2129" y="162.6183"/><text fill="#000000" font-family="sans-serif" font-size="14" lengthAdjust="spacing" textLength="74.4229" x="880.79" y="185.1534">Monitoring</text></g><!--entity Storage--><g class="entity" data-entity="Storage" data-source-line="10" data-uid="ent0008" id="entity_Storage"><rect fill="#F1F1F1" height="46.4883" rx="2.5" ry="2.5" style="stroke:#181818;stroke-width:0.5;" width="91.3652" x="596.32" y="273.0983"/><rect fill="#F1F1F1" height="10" style="stroke:#181818;stroke-width:0.5;" width="15" x="667.6852" y="278.0983"/><rect fill="#F1F1F1" height="2" style="stroke:#181818;stroke-width:0.5;" width="4" x="665.6852" y="280.0983"/><rect fill="#F1F1F1" height="2" style="stroke:#181818;stroke-width:0.5;" width="4" x="665.6852" y="284.0983"/><text fill="#000000" font-family="sans-serif" font-size="14" lengthAdjust="spacing" textLength="51.3652" x="611.32" y="306.6334">Storage</text></g><!--entity Processing--><g class="entity" data-entity="Processing" data-source-line="11" data-uid="ent0009" id="entity_Processing"><rect fill="#F1F1F1" height="46.4883" rx="2.5" ry="2.5" style="stroke:#181818;stroke-width:0.5;" width="112.7754" x="722.61" y="273.0983"/><rect fill="#F1F1F1" height="10" style="stroke:#181818;stroke-width:0.5;" width="15" x="815.3854" y="278.0983"/><rect fill="#F1F1F1" height="2" style="stroke:#181818;stroke-width:0.5;" width="4" x="813.3854" y="280.0983"/><rect fill="#F1F1F1" height="2" style="stroke:#181818;stroke-width:0.5;" width="4" x="813.3854" y="284.0983"/><text fill="#000000" font-family="sans-serif" font-size="14" lengthAdjust="spacing" textLength="72.7754" x="737.61" y="306.6334">Processing</text></g><!--entity Quality--><g class="entity" data-entity="Quality" data-source-line="12" data-uid="ent0010" id="entity_Quality"><rect fill="#F1F1F1" height="46.4883" rx="2.5" ry="2.5" style="stroke:#181818;stroke-width:0.5;" width="87.9404" x="741.03" y="379.5883"/><rect fill="#F1F1F1" height="10" style="stroke:#181818;stroke-width:0.5;" width="15" x="808.9704" y="384.5883"/><rect fill="#F1F1F1" height="2" style="stroke:#181818;stroke-width:0.5;" width="4" x="806.9704" y="386.5883"/><rect fill="#F1F1F1" height="2" style="stroke:#181818;stroke-width:0.5;" width="4" x="806.9704" y="390.5883"/><text fill="#000000" font-family="sans-serif" font-size="14" lengthAdjust="spacing" textLength="47.9404" x="756.03" y="413.1234">Quality</text></g><!--entity APIs--><g class="entity" data-entity="APIs" data-source-line="13" data-uid="ent0011" id="entity_APIs"><rect fill="#F1F1F1" height="46.4883" rx="2.5" ry="2.5" style="stroke:#181818;stroke-width:0.5;" width="68.5674" x="607.72" y="379.5883"/><rect fill="#F1F1F1" height="10" style="stroke:#181818;stroke-width:0.5;" width="15" x="656.2874" y="384.5883"/><rect fill="#F1F1F1" height="2" style="stroke:#181818;stroke-width:0.5;" width="4" x="654.2874" y="386.5883"/><rect fill="#F1F1F1" height="2" style="stroke:#181818;stroke-width:0.5;" width="4" x="654.2874" y="390.5883"/><text fill="#000000" font-family="sans-serif" font-size="14" lengthAdjust="spacing" textLength="28.5674" x="622.72" y="413.1234">APIs</text></g><!--entity Policies--><g class="entity" data-entity="Policies" data-source-line="17" data-uid="ent0013" id="entity_Policies"><rect fill="#F1F1F1" height="46.4883" rx="2.5" ry="2.5" style="stroke:#181818;stroke-width:0.5;" width="90.5859" x="325.71" y="151.6183"/><rect fill="#F1F1F1" height="10" style="stroke:#181818;stroke-width:0.5;" width="15" x="396.2959" y="156.6183"/><rect fill="#F1F1F1" height="2" style="stroke:#181818;stroke-width:0.5;" width="4" x="394.2959" y="158.6183"/><rect fill="#F1F1F1" height="2" style="stroke:#181818;stroke-width:0.5;" width="4" x="394.2959" y="162.6183"/><text fill="#000000" font-family="sans-serif" font-size="14" lengthAdjust="spacing" textLength="50.5859" x="340.71" y="185.1534">Policies</text></g><!--entity Lineage--><g class="entity" data-entity="Lineage" data-source-line="18" data-uid="ent0014" id="entity_Lineage"><rect fill="#F1F1F1" height="46.4883" rx="2.5" ry="2.5" style="stroke:#181818;stroke-width:0.5;" width="92.2607" x="198.87" y="151.6183"/><rect fill="#F1F1F1" height="10" style="stroke:#181818;stroke-width:0.5;" width="15" x="271.1307" y="156.6183"/><rect fill="#F1F1F1" height="2" style="stroke:#181818;stroke-width:0.5;" width="4" x="269.1307" y="158.6183"/><rect fill="#F1F1F1" height="2" style="stroke:#181818;stroke-width:0.5;" width="4" x="269.1307" y="162.6183"/><text fill="#000000" font-family="sans-serif" font-size="14" lengthAdjust="spacing" textLength="52.2607" x="213.87" y="185.1534">Lineage</text></g><!--entity Access Control--><g class="entity" data-entity="Access Control" data-source-line="19" data-uid="ent0015" id="entity_Access Control"><rect fill="#F1F1F1" height="46.4883" rx="2.5" ry="2.5" style="stroke:#181818;stroke-width:0.5;" width="141.0898" x="22.46" y="151.6183"/><rect fill="#F1F1F1" height="10" style="stroke:#181818;stroke-width:0.5;" width="15" x="143.5498" y="156.6183"/><rect fill="#F1F1F1" height="2" style="stroke:#181818;stroke-width:0.5;" width="4" x="141.5498" y="158.6183"/><rect fill="#F1F1F1" height="2" style="stroke:#181818;stroke-width:0.5;" width="4" x="141.5498" y="162.6183"/><text fill="#000000" font-family="sans-serif" font-size="14" lengthAdjust="spacing" textLength="101.0898" x="37.46" y="185.1534">Access Control</text></g><!--link Identity to Access Control--><g class="link" data-entity-1="Identity" data-entity-2="Access Control" data-source-line="22" data-uid="lnk16" id="link_Identity_Access Control"><path d="M501.35,151.3383 C483.11,127.8383 451.49,93.1583 414.5,78.6183 C325.16,43.4883 288.01,43.9183 198.5,78.6183 C161.05,93.1283 132.4813,123.1196 113.8113,146.6296" fill="none" id="Identity-to-Access Control" style="stroke:#181818;stroke-width:1;"/><polygon fill="#181818" points="110.08,151.3283,118.8094,146.7679,113.1894,147.4128,112.5446,141.7928,110.08,151.3283" style="stroke:#181818;stroke-width:1;"/></g><!--link Catalog to Storage--><g class="link" data-entity-1="Catalog" data-entity-2="Storage" data-source-line="23" data-uid="lnk17" id="link_Catalog_Storage"><path d="M643.62,198.3283 C643.27,219.6983 642.8313,245.6391 642.4713,266.9691" fill="none" id="Catalog-to-Storage" style="stroke:#181818;stroke-width:1;"/><polygon fill="#181818" points="642.37,272.9683,646.5213,264.0371,642.4544,267.969,638.5224,263.9021,642.37,272.9683" style="stroke:#181818;stroke-width:1;"/></g><!--link Scheduler to Processing--><g class="link" data-entity-1="Scheduler" data-entity-2="Processing" data-source-line="24" data-uid="lnk18" id="link_Scheduler_Processing"><path d="M778.19,198.3283 C778.37,219.6983 778.5794,245.6385 778.7594,266.9685" fill="none" id="Scheduler-to-Processing" style="stroke:#181818;stroke-width:1;"/><polygon fill="#181818" points="778.81,272.9683,782.7339,263.9348,778.7678,267.9685,774.7342,264.0024,778.81,272.9683" style="stroke:#181818;stroke-width:1;"/></g><!--link Processing to Quality--><g class="link" data-entity-1="Processing" data-entity-2="Quality" data-source-line="25" data-uid="lnk19" id="link_Processing_Quality"><path d="M780.3,320.0183 C781.31,337.5483 782.3447,355.6982 783.3547,373.2182" fill="none" id="Processing-to-Quality" style="stroke:#181818;stroke-width:1;"/><polygon fill="#181818" points="783.7,379.2083,787.1754,369.993,783.4122,374.2166,779.1887,370.4534,783.7,379.2083" style="stroke:#181818;stroke-width:1;"/></g><!--link Quality to Monitoring--><g class="link" data-entity-1="Quality" data-entity-2="Monitoring" data-source-line="26" data-uid="lnk20" id="link_Quality_Monitoring"><path d="M806.2,379.2183 C820.48,363.3083 839.16,341.0883 853,319.5883 C879.07,279.0983 899.6641,233.0216 911.7041,203.9516" fill="none" id="Quality-to-Monitoring" style="stroke:#181818;stroke-width:1;"/><polygon fill="#181818" points="914,198.4083,906.8606,205.1927,912.0867,203.0277,914.2517,208.2539,914,198.4083" style="stroke:#181818;stroke-width:1;"/></g><!--link Storage to APIs--><g class="link" data-entity-1="Storage" data-entity-2="APIs" data-source-line="27" data-uid="lnk21" id="link_Storage_APIs"><path d="M642,320.0183 C642,337.5483 642,355.6883 642,373.2083" fill="none" id="Storage-to-APIs" style="stroke:#181818;stroke-width:1;"/><polygon fill="#181818" points="642,379.2083,646,370.2083,642,374.2083,638,370.2083,642,379.2083" style="stroke:#181818;stroke-width:1;"/></g><!--link Policies to Processing--><g class="link" data-entity-1="Policies" data-entity-2="Processing" data-source-line="28" data-uid="lnk22" id="link_Policies_Processing"><path d="M403.79,198.3683 C418.97,207.5283 437.68,217.1283 456,222.0983 C509.43,236.6083 653.53,209.6983 705,230.0983 C727.29,238.9383 743.3191,253.1559 756.9091,268.2759" fill="none" id="Policies-to-Processing" style="stroke:#181818;stroke-width:1;"/><polygon fill="#181818" points="760.92,272.7383,757.8787,263.3708,757.5776,269.0196,751.9288,268.7186,760.92,272.7383" style="stroke:#181818;stroke-width:1;"/></g><!--SRC=[PL112i8m4Bpt5Q7tVa4e5QIWK2bu4GyXNMimpPOaLKJykp49IQGvxUpEpEx4S2E0T8AQAwg9D3ZDA44QSkBmB6RAxdG4KZOeZK9HadT1x3ktW-Lmyxfus5131Ou1zUm6mo901Nn0oGqgBYtXKoJJhLL5nzuoR3T8EeKCj7OIrpWkLAHzTTVgVwyTFa19AXb4nmu5PnnqqEovXBIWPZz_4d8vhnIALDLcJOaf_JWUdENra_pu7FXfJ18htyz_APg7IrpS56YrvWi0]--></g></svg>